# xmcd
#
# Track frame offsets: 
#        150
#        21435
#        54835
#        70232
#        89530
#        105557
#        123170
#        137712
#        152732
#        165957
#        179355
#        194505
#        205652
#        224147
#        241655
#        256055
#        273392
#        294485
#        311630
#        331007
#
# Disc length: 4662 seconds
#
# Revision: 3
# Processed by: cddbd v1.5.2PL0 Copyright (c) Steve Scherf et al.
# Submitted via: ExactAudioCopy v1.3
#
DISCID=1c123414
DTITLE=Various Artist - Classic Love Songs
DYEAR=1999
DGENRE=Easy Listening
TTITLE0=Gladys Knight and The Pips - Midnight Train to Georgia
TTITLE1=Phyllis Hyman - Loving You, Losing You
TTITLE2=Sweet Sensation - Sad Sweet Dreamer
TTITLE3=Sylvia - Pillow talk
TTITLE4=Gene Pitney - Something's Gotten Hold Of My Heart
TTITLE5=Candi Staton - Suspicious Minds
TTITLE6=Donnie Elbert - Where did our love go
TTITLE7=Kelly Marie - Feels like I'm in love
TTITLE8=Sweet Sensation - Purley by coincidence
TTITLE9=The Foundations - Baby, NowThat I've found you
TTITLE10=Gladys Knight and The Pips - Come back and finish what you star
TTITLE10=ted
TTITLE11=Donnie Elbert - Sweet Baby
TTITLE12=Candi Staton - Count on Me
TTITLE13=Bonnie Tyler - Lost in France
TTITLE14=Moody Blues - Go Now
TTITLE15=Dollar - Shooting star
TTITLE16=Melanie - Ruby Tuesday
TTITLE17=Jim Croce - Operator (That's Not The Way It Feels)
TTITLE18=Elkie Brooks - We've Got tonight
TTITLE19=David Parton - Isn't she lovely
EXTD=
EXTT0=
EXTT1=
EXTT2=
EXTT3=
EXTT4=
EXTT5=
EXTT6=
EXTT7=
EXTT8=
EXTT9=
EXTT10=
EXTT11=
EXTT12=
EXTT13=
EXTT14=
EXTT15=
EXTT16=
EXTT17=
EXTT18=
EXTT19=
PLAYORDER=
